# xmcd
# Track frame offsets:
# 150
# 14048
# 31468
# 47176
# 60591
# 75123
# 90256
# 106013
# 120888
# 134849
# 149275
# 163344
# 178122
# 191788
# 206110
# 221913
# 237348
# 249201
#
# Disc length: 3479 seconds
# Revision: 0
# Processed by: cddbd v1.5.2PL0 Copyright (c) Steve Scherf et al.
# Submitted via: VisiTrax 2.11.3.279 - For more info visit www.synapsa.com
#
DISCID=fe0d9512
DTITLE=Various Artist - Promo Only Country - April 2015
DYEAR=2015
DGENRE=Country
TTITLE0=Sammy Hakim - Empty Bottle
TTITLE1=Mitch Goudy - My Girl's Hand
TTITLE2=Carrie Underwood - Little Toy Guns
TTITLE3=Michael Ray - Kiss You In The Morning
TTITLE4=David Fanning - Doin' Country Right
TTITLE5=LiveWire - Quit You
TTITLE6=Ray Price - 18 Again
TTITLE7=Cam - My Mistake
TTITLE8=Montgomery Gentry - Folks Like Us
TTITLE9=Eric Church - Like A Wrecking Ball
TTITLE10=John King - On Your Lips
TTITLE11=Trisha Yearwood - I Remember You
TTITLE12=Dan and Shay - Nothin' Like You
TTITLE13=Florida Georgia Line - Sippin' On Fire
TTITLE14=Gary Allan - Hangover Tonight
TTITLE15=Ashley Monroe - On To Something Good
TTITLE16=Jeff Bates - After The Fire Is Gone
TTITLE17=Drake White - It Feels Good
EXTD=
EXTT0=
EXTT1=
EXTT2=
EXTT3=
EXTT4=
EXTT5=
EXTT6=
EXTT7=
EXTT8=
EXTT9=
EXTT10=
EXTT11=
EXTT12=
EXTT13=
EXTT14=
EXTT15=
EXTT16=
EXTT17=
PLAYORDER=
